<svg width="67" height="60" viewBox="0 0 67 60" fill="none" xmlns="http://www.w3.org/2000/svg">
<path d="M15.7908 33.055C15.3824 33.2028 15.0114 33.4387 14.7042 33.7459C14.397 34.053 14.1612 34.424 14.0133 34.8325C13.7739 35.4307 13.7153 36.086 13.8448 36.7172C13.9742 37.3483 14.2861 37.9277 14.7417 38.3833C15.1973 38.8389 15.7766 39.1507 16.4078 39.2802C17.039 39.4097 17.6943 39.3511 18.2925 39.1116C18.6914 38.945 19.0588 38.7112 19.3788 38.4204C19.6695 38.1004 19.9033 37.733 20.07 37.3341C20.2543 36.9435 20.3445 36.5151 20.3333 36.0833C20.3212 35.2118 19.9803 34.377 19.3788 33.7462C18.9159 33.2895 18.3281 32.9801 17.6895 32.8571C17.051 32.734 16.3903 32.8029 15.7908 33.055ZM59.0433 19.8883L54.5667 6.6229C53.8838 4.69145 52.6172 3.02018 50.9422 1.84063C49.2673 0.66109 47.2669 0.0316658 45.2183 0.0395632H21.7817C19.7331 0.0316658 17.7327 0.66109 16.0578 1.84063C14.3828 3.02018 13.1162 4.69145 12.4333 6.6229L7.95667 19.9871C5.85108 20.5384 3.98664 21.77 2.65323 23.4904C1.31982 25.2107 0.592146 27.3234 0.583336 29.5V42.6666C0.589062 44.704 1.22481 46.6897 2.40342 48.3516C3.58204 50.0134 5.24582 51.27 7.16667 51.9491V55.8333C7.16667 56.7063 7.51347 57.5436 8.13078 58.1609C8.74808 58.7782 9.58533 59.125 10.4583 59.125C11.3313 59.125 12.1686 58.7782 12.7859 58.1609C13.4032 57.5436 13.75 56.7063 13.75 55.8333V52.5416H53.25V55.8333C53.25 56.7063 53.5968 57.5436 54.2141 58.1609C54.8314 58.7782 55.6687 59.125 56.5417 59.125C57.4147 59.125 58.2519 58.7782 58.8692 58.1609C59.4865 57.5436 59.8333 56.7063 59.8333 55.8333V51.9491C61.7542 51.27 63.418 50.0134 64.5966 48.3516C65.7752 46.6897 66.4109 44.704 66.4167 42.6666V29.5C66.4079 27.3234 65.6802 25.2107 64.3468 23.4904C63.0134 21.77 61.1489 20.5384 59.0433 19.9871V19.8883ZM18.6546 8.69665C18.8754 8.04285 19.2961 7.47499 19.8573 7.07333C20.4184 6.67168 21.0916 6.45653 21.7817 6.45831H45.2183C45.9361 6.42085 46.6465 6.61936 47.2409 7.02354C47.8352 7.42772 48.281 8.01533 48.51 8.69665L51.9663 19.625H15.0338L18.6546 8.69665ZM59.8333 42.6666C59.8333 43.5396 59.4865 44.3769 58.8692 44.9942C58.2519 45.6115 57.4147 45.9583 56.5417 45.9583H10.4583C9.58533 45.9583 8.74808 45.6115 8.13078 44.9942C7.51347 44.3769 7.16667 43.5396 7.16667 42.6666V29.5C7.16667 28.627 7.51347 27.7897 8.13078 27.1724C8.74808 26.5551 9.58533 26.2083 10.4583 26.2083H56.5417C57.4147 26.2083 58.2519 26.5551 58.8692 27.1724C59.4865 27.7897 59.8333 28.627 59.8333 29.5V42.6666ZM48.7075 33.055C48.299 33.2028 47.928 33.4387 47.6209 33.7459C47.3137 34.053 47.0778 34.424 46.93 34.8325C46.6906 35.4307 46.6319 36.086 46.7614 36.7172C46.8909 37.3483 47.2028 37.9277 47.6584 38.3833C48.114 38.8389 48.6933 39.1507 49.3245 39.2802C49.9557 39.4097 50.611 39.3511 51.2092 39.1116C51.6176 38.9638 51.9886 38.7279 52.2958 38.4208C52.603 38.1136 52.8388 37.7426 52.9867 37.3341C53.1709 36.9435 53.2611 36.5151 53.25 36.0833C53.2379 35.2118 52.8969 34.377 52.2954 33.7462C51.8325 33.2895 51.2447 32.9801 50.6062 32.8571C49.9676 32.734 49.307 32.8029 48.7075 33.055ZM36.7917 32.7916H30.2083C29.3353 32.7916 28.4981 33.1384 27.8808 33.7558C27.2635 34.3731 26.9167 35.2103 26.9167 36.0833C26.9167 36.9563 27.2635 37.7936 27.8808 38.4109C28.4981 39.0282 29.3353 39.375 30.2083 39.375H36.7917C37.6647 39.375 38.5019 39.0282 39.1192 38.4109C39.7365 37.7936 40.0833 36.9563 40.0833 36.0833C40.0833 35.2103 39.7365 34.3731 39.1192 33.7558C38.5019 33.1384 37.6647 32.7916 36.7917 32.7916Z" fill="#111111"/>
</svg>
