<svg width="16" height="16" viewBox="0 0 16 16" fill="none" xmlns="http://www.w3.org/2000/svg">
<path fill-rule="evenodd" clip-rule="evenodd" d="M2.87 7.74997L4.84 9.71997C4.91369 9.78863 4.97279 9.87143 5.01378 9.96343C5.05477 10.0554 5.07681 10.1547 5.07859 10.2554C5.08037 10.3561 5.06184 10.4562 5.02412 10.5496C4.9864 10.643 4.93026 10.7278 4.85904 10.799C4.78782 10.8702 4.70299 10.9264 4.6096 10.9641C4.51621 11.0018 4.41618 11.0203 4.31548 11.0186C4.21477 11.0168 4.11546 10.9947 4.02346 10.9537C3.93146 10.9128 3.84866 10.8537 3.78 10.78L0.53 7.52997L0 6.99997L0.53 6.46997L3.78 3.21997C3.92217 3.08749 4.11022 3.01537 4.30452 3.01879C4.49882 3.02222 4.68421 3.10093 4.82162 3.23835C4.95903 3.37576 5.03775 3.56114 5.04117 3.75545C5.0446 3.94975 4.97248 4.13779 4.84 4.27997L2.87 6.24997H12.75C13.612 6.24997 14.4386 6.59238 15.0481 7.20187C15.6576 7.81136 16 8.63801 16 9.49997C16 10.3619 15.6576 11.1886 15.0481 11.7981C14.4386 12.4076 13.612 12.75 12.75 12.75H10.75C10.5511 12.75 10.3603 12.671 10.2197 12.5303C10.079 12.3896 10 12.1989 10 12C10 11.8011 10.079 11.6103 10.2197 11.4696C10.3603 11.329 10.5511 11.25 10.75 11.25H12.75C13.2141 11.25 13.6592 11.0656 13.9874 10.7374C14.3156 10.4092 14.5 9.9641 14.5 9.49997C14.5 9.03584 14.3156 8.59072 13.9874 8.26253C13.6592 7.93434 13.2141 7.74997 12.75 7.74997H2.87Z" fill="#111111"/>
</svg>
