<svg width="80" height="80" viewBox="0 0 80 80" fill="none" xmlns="http://www.w3.org/2000/svg">
<path d="M63.3333 22.8C64.356 23.3931 65.2032 24.2466 65.7887 25.2736C66.3743 26.3006 66.6772 27.4645 66.6667 28.6466V50.4966C66.6667 52.9233 65.3533 55.1633 63.2333 56.34L43.2333 69.1533C42.2445 69.7035 41.1316 69.9923 40 69.9923C38.8684 69.9923 37.7555 69.7035 36.7667 69.1533L16.7667 56.34C15.7261 55.7605 14.8593 54.9136 14.2557 53.8869C13.6521 52.8602 13.3337 51.691 13.3333 50.5V28.6433C13.3333 26.2166 14.6467 23.98 16.7667 22.8L36.7667 10.86C37.7853 10.2904 38.9329 9.99133 40.1 9.99133C41.2671 9.99133 42.4147 10.2904 43.4333 10.86L63.4333 22.8H63.3333Z" stroke="#111111" stroke-width="6" stroke-linecap="round" stroke-linejoin="round"/>
<path d="M30 40C30 42.6522 31.0536 45.1957 32.9289 47.0711C34.8043 48.9464 37.3478 50 40 50C42.6522 50 45.1957 48.9464 47.0711 47.0711C48.9464 45.1957 50 42.6522 50 40C50 37.3478 48.9464 34.8043 47.0711 32.9289C45.1957 31.0536 42.6522 30 40 30C37.3478 30 34.8043 31.0536 32.9289 32.9289C31.0536 34.8043 30 37.3478 30 40Z" stroke="#111111" stroke-width="6" stroke-linecap="round" stroke-linejoin="round"/>
</svg>
