<svg width="32" height="36" viewBox="0 0 32 36" fill="none" xmlns="http://www.w3.org/2000/svg">
<path d="M15.8027 33.75L18.0527 36H0V4.5H9C9 3.87891 9.11719 3.29883 9.35156 2.75977C9.58594 2.2207 9.9082 1.74023 10.3184 1.31836C10.7285 0.896484 11.2031 0.574219 11.7422 0.351562C12.2812 0.128906 12.8672 0.0117188 13.5 0C14.1211 0 14.7012 0.117188 15.2402 0.351562C15.7793 0.585937 16.2598 0.908203 16.6816 1.31836C17.1035 1.72852 17.4258 2.20313 17.6484 2.74219C17.8711 3.28125 17.9883 3.86719 18 4.5H27V22.5527L24.75 24.8027V6.75H22.5V11.25H4.5V6.75H2.25V33.75H15.8027ZM6.75 6.75V9H20.25V6.75H15.75V4.5C15.75 4.18359 15.6914 3.89062 15.5742 3.62109C15.457 3.35156 15.2988 3.11719 15.0996 2.91797C14.9004 2.71875 14.6602 2.55469 14.3789 2.42578C14.0977 2.29687 13.8047 2.23828 13.5 2.25C13.1836 2.25 12.8906 2.30859 12.6211 2.42578C12.3516 2.54297 12.1172 2.70117 11.918 2.90039C11.7188 3.09961 11.5547 3.33984 11.4258 3.62109C11.2969 3.90234 11.2383 4.19531 11.25 4.5V6.75H6.75ZM31.166 25.541L21.375 35.3496L16.6465 30.6035L18.2285 29.0215L21.375 32.1504L29.584 23.959L31.166 25.541Z" fill="#141414"/>
</svg>
