<svg width="62" height="62" viewBox="0 0 62 62" fill="none" xmlns="http://www.w3.org/2000/svg">
<path fill-rule="evenodd" clip-rule="evenodd" d="M20.6667 18.0833C20.6667 15.3428 21.7554 12.7144 23.6932 10.7766C25.6311 8.83869 28.2594 7.75 31 7.75C33.7406 7.75 36.3689 8.83869 38.3068 10.7766C40.2446 12.7144 41.3333 15.3428 41.3333 18.0833C41.3333 20.8239 40.2446 23.4522 38.3068 25.3901C36.3689 27.328 33.7406 28.4167 31 28.4167C28.2594 28.4167 25.6311 27.328 23.6932 25.3901C21.7554 23.4522 20.6667 20.8239 20.6667 18.0833ZM20.6667 33.5833C17.241 33.5833 13.9555 34.9442 11.5332 37.3665C9.11086 39.7889 7.75 43.0743 7.75 46.5C7.75 48.5554 8.56652 50.5267 10.0199 51.9801C11.4733 53.4335 13.4446 54.25 15.5 54.25H46.5C48.5554 54.25 50.5267 53.4335 51.9801 51.9801C53.4335 50.5267 54.25 48.5554 54.25 46.5C54.25 43.0743 52.8891 39.7889 50.4668 37.3665C48.0444 34.9442 44.759 33.5833 41.3333 33.5833H20.6667Z" fill="#111111"/>
</svg>
