<svg width="59" height="53" viewBox="0 0 59 53" fill="none" xmlns="http://www.w3.org/2000/svg">
<path d="M37.2864 19.3214C38.7143 19.3214 40.0837 19.8887 41.0934 20.8984C42.103 21.908 42.6703 23.2775 42.6703 24.7054V39.6583C42.6703 43.1494 41.2835 46.4975 38.8149 48.9661C36.3463 51.4346 32.9982 52.8214 29.5072 52.8214C26.0161 52.8214 22.668 51.4346 20.1994 48.9661C17.7309 46.4975 16.3441 43.1494 16.3441 39.6583V24.7054C16.3441 23.2775 16.9113 21.908 17.921 20.8984C18.9307 19.8887 20.3001 19.3214 21.728 19.3214H37.2864ZM37.2864 22.9107H21.728C21.252 22.9107 20.7955 23.0998 20.459 23.4364C20.1224 23.7729 19.9333 24.2294 19.9333 24.7054V39.6583C19.9333 42.1975 20.942 44.6326 22.7375 46.4281C24.5329 48.2235 26.968 49.2322 29.5072 49.2322C32.0463 49.2322 34.4814 48.2235 36.2769 46.4281C38.0723 44.6326 39.081 42.1975 39.081 39.6583V24.7054C39.081 24.2294 38.8919 23.7729 38.5554 23.4364C38.2188 23.0998 37.7623 22.9107 37.2864 22.9107ZM6.16964 19.3214H16.1144C15.1537 20.3217 14.4786 21.5611 14.1594 22.9107H6.16964C5.69367 22.9107 5.23719 23.0998 4.90063 23.4364C4.56407 23.7729 4.37499 24.2294 4.37499 24.7054V37.2655C4.37467 38.4661 4.67539 39.6477 5.24965 40.702C5.8239 41.7564 6.65336 42.65 7.66215 43.301C8.67095 43.952 9.82687 44.3397 11.0242 44.4287C12.2215 44.5176 13.422 44.3048 14.5159 43.8099C14.8342 44.9824 15.2912 46.0975 15.8655 47.1408C14.2261 47.8566 12.4342 48.1528 10.6516 48.0026C8.86907 47.8524 7.152 47.2605 5.65547 46.2805C4.15895 45.3004 2.9301 43.9631 2.07989 42.3892C1.22968 40.8153 0.784901 39.0544 0.785707 37.2655V24.7054C0.785707 23.2775 1.35294 21.908 2.36262 20.8984C3.37231 19.8887 4.74173 19.3214 6.16964 19.3214ZM52.8304 19.3214C54.2583 19.3214 55.6277 19.8887 56.6374 20.8984C57.647 21.908 58.2143 23.2775 58.2143 24.7054V37.2679C58.215 39.0557 57.7705 40.8156 56.921 42.3888C56.0715 43.9619 54.8436 45.2987 53.3482 46.2786C51.8528 47.2585 50.137 47.8507 48.3555 48.0016C46.574 48.1526 44.783 47.8575 43.1441 47.1432L43.2781 46.8991C43.7901 45.9276 44.2041 44.8963 44.5008 43.8147C45.5941 44.3067 46.7932 44.517 47.9886 44.4264C49.184 44.3359 50.3378 43.9474 51.3445 43.2964C52.3512 42.6454 53.1788 41.7526 53.7519 40.6996C54.3249 39.6465 54.6251 38.4667 54.625 37.2679V24.7054C54.625 24.2298 54.4362 23.7737 54.1002 23.4372C53.7642 23.1007 53.3083 22.9114 52.8327 22.9107H44.8573C44.5376 21.5608 43.8616 20.3213 42.9 19.3214H52.8304ZM29.5 0.178589C30.5998 0.178589 31.6889 0.395214 32.705 0.816098C33.7211 1.23698 34.6443 1.85388 35.422 2.63157C36.1997 3.40926 36.8166 4.33251 37.2375 5.34862C37.6584 6.36472 37.875 7.45377 37.875 8.55359C37.875 9.65341 37.6584 10.7425 37.2375 11.7586C36.8166 12.7747 36.1997 13.6979 35.422 14.4756C34.6443 15.2533 33.7211 15.8702 32.705 16.2911C31.6889 16.712 30.5998 16.9286 29.5 16.9286C27.2788 16.9286 25.1486 16.0462 23.578 14.4756C22.0074 12.905 21.125 10.7748 21.125 8.55359C21.125 6.3324 22.0074 4.20219 23.578 2.63157C25.1486 1.06095 27.2788 0.178589 29.5 0.178589ZM48.65 2.57145C49.5927 2.57145 50.5262 2.75713 51.3972 3.11788C52.2681 3.47864 53.0595 4.00741 53.726 4.674C54.3926 5.34059 54.9214 6.13195 55.2822 7.0029C55.6429 7.87384 55.8286 8.80731 55.8286 9.75002C55.8286 10.6927 55.6429 11.6262 55.2822 12.4971C54.9214 13.3681 54.3926 14.1594 53.726 14.826C53.0595 15.4926 52.2681 16.0214 51.3972 16.3822C50.5262 16.7429 49.5927 16.9286 48.65 16.9286C46.7462 16.9286 44.9203 16.1723 43.574 14.826C42.2278 13.4798 41.4715 11.6539 41.4715 9.75002C41.4715 7.84614 42.2278 6.02025 43.574 4.674C44.9203 3.32776 46.7462 2.57145 48.65 2.57145ZM10.35 2.57145C11.2927 2.57145 12.2261 2.75713 13.0971 3.11788C13.968 3.47864 14.7594 4.00741 15.426 4.674C16.0926 5.34059 16.6213 6.13195 16.9821 7.0029C17.3428 7.87384 17.5285 8.80731 17.5285 9.75002C17.5285 10.6927 17.3428 11.6262 16.9821 12.4971C16.6213 13.3681 16.0926 14.1594 15.426 14.826C14.7594 15.4926 13.968 16.0214 13.0971 16.3822C12.2261 16.7429 11.2927 16.9286 10.35 16.9286C8.44608 16.9286 6.62018 16.1723 5.27394 14.826C3.9277 13.4798 3.17139 11.6539 3.17139 9.75002C3.17139 7.84614 3.9277 6.02025 5.27394 4.674C6.62018 3.32776 8.44608 2.57145 10.35 2.57145ZM29.5 3.76787C28.2307 3.76787 27.0135 4.27208 26.116 5.16958C25.2185 6.06707 24.7143 7.28434 24.7143 8.55359C24.7143 9.82284 25.2185 11.0401 26.116 11.9376C27.0135 12.8351 28.2307 13.3393 29.5 13.3393C30.7692 13.3393 31.9865 12.8351 32.884 11.9376C33.7815 11.0401 34.2857 9.82284 34.2857 8.55359C34.2857 7.28434 33.7815 6.06707 32.884 5.16958C31.9865 4.27208 30.7692 3.76787 29.5 3.76787ZM48.65 6.16073C48.1787 6.16073 47.7119 6.25357 47.2765 6.43395C46.841 6.61433 46.4453 6.87871 46.112 7.21201C45.7787 7.54531 45.5143 7.94099 45.334 8.37646C45.1536 8.81193 45.0607 9.27867 45.0607 9.75002C45.0607 10.2214 45.1536 10.6881 45.334 11.1236C45.5143 11.5591 45.7787 11.9547 46.112 12.288C46.4453 12.6213 46.841 12.8857 47.2765 13.0661C47.7119 13.2465 48.1787 13.3393 48.65 13.3393C49.602 13.3393 50.5149 12.9611 51.188 12.288C51.8612 11.6149 52.2393 10.702 52.2393 9.75002C52.2393 8.79808 51.8612 7.88513 51.188 7.21201C50.5149 6.53889 49.602 6.16073 48.65 6.16073ZM10.35 6.16073C9.87861 6.16073 9.41187 6.25357 8.9764 6.43395C8.54093 6.61433 8.14525 6.87871 7.81195 7.21201C7.47865 7.54531 7.21427 7.94099 7.03389 8.37646C6.85351 8.81193 6.76067 9.27867 6.76067 9.75002C6.76067 10.2214 6.85351 10.6881 7.03389 11.1236C7.21427 11.5591 7.47865 11.9547 7.81195 12.288C8.14525 12.6213 8.54093 12.8857 8.9764 13.0661C9.41187 13.2465 9.87861 13.3393 10.35 13.3393C11.3019 13.3393 12.2148 12.9611 12.888 12.288C13.5611 11.6149 13.9392 10.702 13.9392 9.75002C13.9392 8.79808 13.5611 7.88513 12.888 7.21201C12.2148 6.53889 11.3019 6.16073 10.35 6.16073Z" fill="#111111"/>
</svg>
